STARTFONT 2.1
FONT -FontForge-Orbitron-Light-R-Normal--23-220-75-75-P-152-ISO10646-1
SIZE 22 75 75
FONTBOUNDINGBOX 36 29 -5 -6
COMMENT "Generated by fontforge, http://fontforge.sourceforge.net"
STARTPROPERTIES 38
FOUNDRY "FontForge"
FAMILY_NAME "Orbitron"
WEIGHT_NAME "Light"
SLANT "R"
SETWIDTH_NAME "Normal"
ADD_STYLE_NAME ""
PIXEL_SIZE 23
POINT_SIZE 220
RESOLUTION_X 75
RESOLUTION_Y 75
SPACING "P"
AVERAGE_WIDTH 152
CHARSET_REGISTRY "ISO10646"
CHARSET_ENCODING "1"
FONTNAME_REGISTRY ""
CHARSET_COLLECTIONS "ISO10646-1"
FONT_NAME "Orbitron-Light"
FACE_NAME "Orbitron Light"
FONT_VERSION "1.000"
FONT_ASCENT 17
FONT_DESCENT 6
UNDERLINE_POSITION -2
UNDERLINE_THICKNESS 2
X_HEIGHT 12
CAP_HEIGHT 16
RAW_ASCENT 750
RAW_DESCENT 250
NORM_SPACE 6
RELATIVE_WEIGHT 30
RELATIVE_SETWIDTH 50
SUPERSCRIPT_X 0
SUPERSCRIPT_Y 10
SUPERSCRIPT_SIZE 14
SUBSCRIPT_X 0
SUBSCRIPT_Y 3
SUBSCRIPT_SIZE 14
AVG_LOWERCASE_WIDTH 149
AVG_UPPERCASE_WIDTH 182
ENDPROPERTIES
CHARS 250
STARTCHAR space
ENCODING 32
SWIDTH 272 0
DWIDTH 6 0
BBX 1 1 0 0
BITMAP
00
ENDCHAR
STARTCHAR exclam
ENCODING 33
SWIDTH 220 0
DWIDTH 5 0
BBX 2 17 1 0
BITMAP
C0
C0
C0
C0
C0
C0
C0
C0
C0
C0
C0
C0
00
00
00
C0
C0
ENDCHAR
STARTCHAR quotedbl
ENCODING 34
SWIDTH 372 0
DWIDTH 9 0
BBX 6 3 1 14
BITMAP
CC
CC
CC
ENDCHAR
STARTCHAR numbersign
ENCODING 35
SWIDTH 797 0
DWIDTH 18 0
BBX 17 17 1 0
BITMAP
030300
030200
060600
060600
FFFF80
FFFF80
0C0C00
0C0C00
181800
181800
181800
FFFF00
FFFF00
303000
206000
606000
606000
ENDCHAR
STARTCHAR dollar
ENCODING 36
SWIDTH 788 0
DWIDTH 18 0
BBX 17 22 1 -3
BITMAP
018000
018000
7FFF00
FFFF80
C18180
C18000
C18000
C18000
C18000
C18000
FFFF00
7FFF80
018180
018180
018180
018180
C18180
FFFF80
7FFF00
018000
018000
018000
ENDCHAR
STARTCHAR percent
ENCODING 37
SWIDTH 966 0
DWIDTH 22 0
BBX 20 17 1 0
BITMAP
7E0020
810060
8100E0
8101C0
810380
810700
811C00
7E3800
007000
00E000
01C3E0
070410
0E0410
1C0410
380410
300410
2003E0
ENDCHAR
STARTCHAR ampersand
ENCODING 38
SWIDTH 938 0
DWIDTH 22 0
BBX 20 17 1 0
BITMAP
3FFE00
7FFF00
600300
600300
600000
600000
700000
3C0000
CE0000
C38180
C0E180
C03980
C00F80
C003C0
C001E0
FFFFB0
7FFF10
ENDCHAR
STARTCHAR quotesingle
ENCODING 39
SWIDTH 224 0
DWIDTH 5 0
BBX 2 3 1 14
BITMAP
C0
C0
C0
ENDCHAR
STARTCHAR parenleft
ENCODING 40
SWIDTH 277 0
DWIDTH 6 0
BBX 3 17 1 0
BITMAP
60
E0
C0
C0
C0
C0
C0
C0
C0
C0
C0
C0
C0
C0
C0
E0
60
ENDCHAR
STARTCHAR parenright
ENCODING 41
SWIDTH 278 0
DWIDTH 6 0
BBX 3 17 2 0
BITMAP
C0
E0
60
60
60
60
60
60
60
60
60
60
60
60
60
E0
C0
ENDCHAR
STARTCHAR asterisk
ENCODING 42
SWIDTH 491 0
DWIDTH 11 0
BBX 10 10 0 7
BITMAP
0C00
0C00
0C00
EDC0
FFC0
1E00
1E00
3F00
3300
6180
ENDCHAR
STARTCHAR plus
ENCODING 43
SWIDTH 433 0
DWIDTH 10 0
BBX 10 9 0 2
BITMAP
0C00
0C00
0C00
FFC0
FFC0
0C00
0C00
0C00
0C00
ENDCHAR
STARTCHAR comma
ENCODING 44
SWIDTH 193 0
DWIDTH 4 0
BBX 2 5 1 -3
BITMAP
C0
C0
C0
C0
80
ENDCHAR
STARTCHAR hyphen
ENCODING 45
SWIDTH 517 0
DWIDTH 12 0
BBX 9 2 1 6
BITMAP
FF80
FF80
ENDCHAR
STARTCHAR period
ENCODING 46
SWIDTH 214 0
DWIDTH 5 0
BBX 2 2 1 0
BITMAP
C0
C0
ENDCHAR
STARTCHAR slash
ENCODING 47
SWIDTH 521 0
DWIDTH 12 0
BBX 12 17 0 0
BITMAP
0010
0010
0030
0060
00C0
0180
0180
0300
0600
0C00
1800
1800
3000
6000
C000
8000
8000
ENDCHAR
STARTCHAR zero
ENCODING 48
SWIDTH 834 0
DWIDTH 19 0
BBX 17 17 1 0
BITMAP
7FFF00
FFFF80
C00380
C00780
C00F80
C01D80
C07180
C0E180
C1C180
C38180
C70180
DC0180
F80180
F00180
E00180
FFFF80
7FFF00
ENDCHAR
STARTCHAR one
ENCODING 49
SWIDTH 391 0
DWIDTH 9 0
BBX 7 17 0 0
BITMAP
0E
1E
3E
76
66
86
06
06
06
06
06
06
06
06
06
06
06
ENDCHAR
STARTCHAR two
ENCODING 50
SWIDTH 830 0
DWIDTH 19 0
BBX 17 17 1 0
BITMAP
7FFF00
FFFF80
C00180
000180
000180
000180
000180
000180
7FFF80
FFFF00
C00000
C00000
C00000
C00000
C00000
FFFF80
FFFF80
ENDCHAR
STARTCHAR three
ENCODING 51
SWIDTH 826 0
DWIDTH 19 0
BBX 17 17 1 0
BITMAP
7FFE00
FFFF00
C00300
000300
000300
000300
000300
000300
1FFF00
1FFF80
000180
000180
000180
000180
C00180
FFFF80
7FFF00
ENDCHAR
STARTCHAR four
ENCODING 52
SWIDTH 730 0
DWIDTH 17 0
BBX 17 17 0 0
BITMAP
001C00
003C00
007C00
00FC00
01CC00
038C00
070C00
0E0C00
1C0C00
380C00
600C00
FFFF80
FFFF80
000C00
000C00
000C00
000C00
ENDCHAR
STARTCHAR five
ENCODING 53
SWIDTH 830 0
DWIDTH 19 0
BBX 17 17 1 0
BITMAP
FFFF80
FFFF80
C00000
C00000
C00000
C00000
C00000
FFFF00
FFFF80
000180
000180
000180
000180
000180
C00180
FFFF80
7FFF00
ENDCHAR
STARTCHAR six
ENCODING 54
SWIDTH 820 0
DWIDTH 19 0
BBX 17 17 1 0
BITMAP
7FFC00
FFFC00
C00000
C00000
C00000
C00000
C00000
FFFF00
FFFF80
C00180
C00180
C00180
C00180
C00180
C00180
FFFF80
7FFF00
ENDCHAR
STARTCHAR seven
ENCODING 55
SWIDTH 660 0
DWIDTH 15 0
BBX 14 17 0 0
BITMAP
FFF8
FFFC
000C
000C
000C
000C
000C
000C
000C
000C
000C
000C
000C
000C
000C
000C
000C
ENDCHAR
STARTCHAR eight
ENCODING 56
SWIDTH 834 0
DWIDTH 19 0
BBX 17 17 1 0
BITMAP
7FFF00
FFFF80
C00180
C00180
C00180
C00180
C00180
C00180
7FFF00
FFFF80
C00180
C00180
C00180
C00180
C00180
FFFF80
7FFF00
ENDCHAR
STARTCHAR nine
ENCODING 57
SWIDTH 828 0
DWIDTH 19 0
BBX 17 17 1 0
BITMAP
7FFF00
FFFF80
C00180
C00180
C00180
C00180
C00180
C00180
FFFF80
7FFF80
000180
000180
000180
000180
000180
FFFF80
7FFF00
ENDCHAR
STARTCHAR colon
ENCODING 58
SWIDTH 214 0
DWIDTH 5 0
BBX 2 14 1 0
BITMAP
C0
C0
00
00
00
00
00
00
00
00
00
00
C0
C0
ENDCHAR
STARTCHAR semicolon
ENCODING 59
SWIDTH 193 0
DWIDTH 4 0
BBX 2 17 1 -3
BITMAP
C0
C0
00
00
00
00
00
00
00
00
00
00
C0
C0
C0
C0
80
ENDCHAR
STARTCHAR less
ENCODING 60
SWIDTH 473 0
DWIDTH 11 0
BBX 9 13 0 0
BITMAP
0080
0180
0780
1E00
3800
F000
C000
F000
3800
1E00
0780
0180
0080
ENDCHAR
STARTCHAR equal
ENCODING 61
SWIDTH 638 0
DWIDTH 15 0
BBX 12 7 1 3
BITMAP
FFF0
FFF0
0000
0000
0000
FFF0
FFF0
ENDCHAR
STARTCHAR greater
ENCODING 62
SWIDTH 475 0
DWIDTH 11 0
BBX 10 13 1 0
BITMAP
8000
E000
7800
1C00
0F00
03C0
00C0
03C0
0F00
1C00
7800
E000
8000
ENDCHAR
STARTCHAR question
ENCODING 63
SWIDTH 678 0
DWIDTH 17 0
BBX 15 17 1 0
BITMAP
FFFC
FFFE
0006
0006
0006
0006
0006
0006
0FFE
1FFC
1800
1800
0000
0000
0000
1800
1800
ENDCHAR
STARTCHAR at
ENCODING 64
SWIDTH 831 0
DWIDTH 19 0
BBX 17 17 1 0
BITMAP
7FFF00
FFFF80
C00180
C00180
C00180
C3E180
C41180
C41180
C41180
C41180
C41180
C3FF80
C00000
C00000
C00000
FFFF80
7FFF80
ENDCHAR
STARTCHAR A
ENCODING 65
SWIDTH 836 0
DWIDTH 19 0
BBX 17 17 1 0
BITMAP
7FFF00
FFFF80
C00180
C00180
C00180
C00180
C00180
C00180
C00180
FFFF80
FFFF80
C00180
C00180
C00180
C00180
C00180
C00180
ENDCHAR
STARTCHAR B
ENCODING 66
SWIDTH 832 0
DWIDTH 19 0
BBX 17 17 1 0
BITMAP
FFFE00
FFFF00
C00300
C00300
C00300
C00300
C00300
C00300
FFFF00
FFFF80
C00180
C00180
C00180
C00180
C00180
FFFF80
FFFF00
ENDCHAR
STARTCHAR C
ENCODING 67
SWIDTH 822 0
DWIDTH 19 0
BBX 17 17 1 0
BITMAP
7FFF80
FFFF80
C00000
C00000
C00000
C00000
C00000
C00000
C00000
C00000
C00000
C00000
C00000
C00000
C00000
FFFF80
7FFF80
ENDCHAR
STARTCHAR D
ENCODING 68
SWIDTH 834 0
DWIDTH 19 0
BBX 17 17 1 0
BITMAP
FFFF00
FFFF80
C00180
C00180
C00180
C00180
C00180
C00180
C00180
C00180
C00180
C00180
C00180
C00180
C00180
FFFF80
FFFF00
ENDCHAR
STARTCHAR E
ENCODING 69
SWIDTH 766 0
DWIDTH 18 0
BBX 15 17 1 0
BITMAP
FFFE
FFFE
C000
C000
C000
C000
C000
C000
FFF8
FFF8
C000
C000
C000
C000
C000
FFFE
FFFE
ENDCHAR
STARTCHAR F
ENCODING 70
SWIDTH 723 0
DWIDTH 17 0
BBX 15 17 1 0
BITMAP
FFFE
FFFE
C000
C000
C000
C000
C000
C000
FFF8
FFF8
C000
C000
C000
C000
C000
C000
C000
ENDCHAR
STARTCHAR G
ENCODING 71
SWIDTH 830 0
DWIDTH 19 0
BBX 17 17 1 0
BITMAP
7FFF00
FFFF80
C00180
C00000
C00000
C00000
C00000
C00000
C01F80
C01F80
C00180
C00180
C00180
C00180
C00180
FFFF80
7FFF00
ENDCHAR
STARTCHAR H
ENCODING 72
SWIDTH 851 0
DWIDTH 19 0
BBX 17 17 1 0
BITMAP
C00180
C00180
C00180
C00180
C00180
C00180
C00180
C00180
FFFF80
FFFF80
C00180
C00180
C00180
C00180
C00180
C00180
C00180
ENDCHAR
STARTCHAR I
ENCODING 73
SWIDTH 220 0
DWIDTH 5 0
BBX 2 17 1 0
BITMAP
C0
C0
C0
C0
C0
C0
C0
C0
C0
C0
C0
C0
C0
C0
C0
C0
C0
ENDCHAR
STARTCHAR J
ENCODING 74
SWIDTH 780 0
DWIDTH 18 0
BBX 17 17 0 0
BITMAP
000180
000180
000180
000180
000180
000180
000180
000180
000180
000180
000180
000180
000180
C00180
C00180
FFFF80
7FFF00
ENDCHAR
STARTCHAR K
ENCODING 75
SWIDTH 797 0
DWIDTH 18 0
BBX 16 17 1 0
BITMAP
C007
C00E
C00C
C018
C030
C060
C0E0
C0C0
FF80
FFC0
C0E0
C060
C030
C038
C01C
C00E
C007
ENDCHAR
STARTCHAR L
ENCODING 76
SWIDTH 779 0
DWIDTH 18 0
BBX 17 17 1 0
BITMAP
C00000
C00000
C00000
C00000
C00000
C00000
C00000
C00000
C00000
C00000
C00000
C00000
C00000
C00000
C00000
FFFF80
FFFF80
ENDCHAR
STARTCHAR M
ENCODING 77
SWIDTH 928 0
DWIDTH 21 0
BBX 19 17 1 0
BITMAP
E000E0
F001E0
F803E0
DC0760
CC0660
C60C60
C31860
C3B860
C1F060
C0E060
C04060
C00060
C00060
C00060
C00060
C00060
C00060
ENDCHAR
STARTCHAR N
ENCODING 78
SWIDTH 832 0
DWIDTH 19 0
BBX 17 17 1 0
BITMAP
E00180
F00180
F80180
DC0180
CC0180
C60180
C30180
C38180
C1C180
C0E180
C06180
C03180
C01980
C01D80
C00F80
C00780
C00380
ENDCHAR
STARTCHAR O
ENCODING 79
SWIDTH 828 0
DWIDTH 19 0
BBX 17 17 1 0
BITMAP
7FFF00
FFFF80
C00180
C00180
C00180
C00180
C00180
C00180
C00180
C00180
C00180
C00180
C00180
C00180
C00180
FFFF80
7FFF00
ENDCHAR
STARTCHAR P
ENCODING 80
SWIDTH 791 0
DWIDTH 19 0
BBX 17 17 1 0
BITMAP
FFFF00
FFFF80
C00180
C00180
C00180
C00180
C00180
C00180
C00180
FFFF80
FFFF00
C00000
C00000
C00000
C00000
C00000
C00000
ENDCHAR
STARTCHAR Q
ENCODING 81
SWIDTH 884 0
DWIDTH 21 0
BBX 19 17 1 0
BITMAP
7FFF00
FFFF80
C00180
C00180
C00180
C00180
C00180
C00180
C00180
C00180
C00180
C00180
C00180
C00180
C00180
FFFFE0
7FFFE0
ENDCHAR
STARTCHAR R
ENCODING 82
SWIDTH 825 0
DWIDTH 19 0
BBX 17 17 1 0
BITMAP
FFFF00
FFFF80
C00180
C00180
C00180
C00180
C00180
C00180
C00180
FFFF80
FFFF00
C03000
C03800
C01C00
C00E00
C00700
C00380
ENDCHAR
STARTCHAR S
ENCODING 83
SWIDTH 822 0
DWIDTH 19 0
BBX 17 17 1 0
BITMAP
7FFF00
FFFF80
C00180
C00000
C00000
C00000
C00000
C00000
FFFF00
7FFF80
000180
000180
000180
000180
C00180
FFFF80
7FFF00
ENDCHAR
STARTCHAR T
ENCODING 84
SWIDTH 759 0
DWIDTH 17 0
BBX 16 17 1 0
BITMAP
FFFF
FFFF
0180
0180
0180
0180
0180
0180
0180
0180
0180
0180
0180
0180
0180
0180
0180
ENDCHAR
STARTCHAR U
ENCODING 85
SWIDTH 828 0
DWIDTH 19 0
BBX 17 17 1 0
BITMAP
C00180
C00180
C00180
C00180
C00180
C00180
C00180
C00180
C00180
C00180
C00180
C00180
C00180
C00180
C00180
FFFF80
7FFF00
ENDCHAR
STARTCHAR V
ENCODING 86
SWIDTH 1003 0
DWIDTH 23 0
BBX 21 17 1 0
BITMAP
C00018
600030
600030
300060
3800E0
1800C0
1C0180
0C0180
060300
060300
030600
030600
018C00
01DC00
00D800
007000
007000
ENDCHAR
STARTCHAR W
ENCODING 87
SWIDTH 1179 0
DWIDTH 27 0
BBX 25 17 1 0
BITMAP
C01C0180
C01C0180
601E0180
60360300
60360300
30330600
30630600
30630600
18C18C00
18C18C00
0CC18C00
0D80D800
0D80D800
07807800
07007000
07007000
03003000
ENDCHAR
STARTCHAR X
ENCODING 88
SWIDTH 812 0
DWIDTH 19 0
BBX 16 17 1 0
BITMAP
E003
7006
380C
181C
0C38
0670
07E0
03C0
0180
03C0
07E0
0670
0C38
1818
380C
7006
E003
ENDCHAR
STARTCHAR Y
ENCODING 89
SWIDTH 806 0
DWIDTH 19 0
BBX 18 17 0 0
BITMAP
E001C0
700380
380700
180600
0C0C00
0E1C00
073800
03F000
01F000
01E000
00C000
00C000
00C000
00C000
00C000
00C000
00C000
ENDCHAR
STARTCHAR Z
ENCODING 90
SWIDTH 821 0
DWIDTH 19 0
BBX 17 17 1 0
BITMAP
FFFF80
FFFF80
000380
000700
000E00
001800
007000
00E000
01C000
038000
070000
0C0000
380000
700000
E00000
FFFF80
FFFF80
ENDCHAR
STARTCHAR bracketleft
ENCODING 91
SWIDTH 275 0
DWIDTH 6 0
BBX 3 17 1 0
BITMAP
E0
E0
C0
C0
C0
C0
C0
C0
C0
C0
C0
C0
C0
C0
C0
E0
E0
ENDCHAR
STARTCHAR backslash
ENCODING 92
SWIDTH 520 0
DWIDTH 12 0
BBX 12 17 0 0
BITMAP
8000
8000
C000
6000
3000
1800
1800
0C00
0600
0300
0180
0180
00C0
0060
0030
0010
0010
ENDCHAR
STARTCHAR bracketright
ENCODING 93
SWIDTH 276 0
DWIDTH 6 0
BBX 3 17 1 0
BITMAP
E0
E0
60
60
60
60
60
60
60
60
60
60
60
60
60
E0
E0
ENDCHAR
STARTCHAR underscore
ENCODING 95
SWIDTH 828 0
DWIDTH 19 0
BBX 17 2 1 -2
BITMAP
FFFF80
FFFF80
ENDCHAR
STARTCHAR grave
ENCODING 96
SWIDTH 213 0
DWIDTH 5 0
BBX 2 3 1 20
BITMAP
C0
C0
C0
ENDCHAR
STARTCHAR a
ENCODING 97
SWIDTH 694 0
DWIDTH 16 0
BBX 14 13 1 0
BITMAP
FFF8
FFFC
000C
000C
000C
FFFC
FFFC
C00C
C00C
C00C
C00C
FFFC
7FFC
ENDCHAR
STARTCHAR b
ENCODING 98
SWIDTH 667 0
DWIDTH 16 0
BBX 14 18 1 0
BITMAP
C000
C000
C000
C000
C000
FFF8
FFFC
C00C
C00C
C00C
C00C
C00C
C00C
C00C
C00C
C00C
FFFC
FFF8
ENDCHAR
STARTCHAR c
ENCODING 99
SWIDTH 695 0
DWIDTH 16 0
BBX 14 13 1 0
BITMAP
7FFC
FFFC
C000
C000
C000
C000
C000
C000
C000
C000
C000
FFFC
7FFC
ENDCHAR
STARTCHAR d
ENCODING 100
SWIDTH 667 0
DWIDTH 15 0
BBX 13 18 1 0
BITMAP
0018
0018
0018
0018
0018
7FF8
FFF8
C018
C018
C018
C018
C018
C018
C018
C018
C018
FFF8
7FF8
ENDCHAR
STARTCHAR e
ENCODING 101
SWIDTH 692 0
DWIDTH 16 0
BBX 14 13 1 0
BITMAP
7FF8
FFFC
C00C
C00C
C00C
FFFC
FFFC
C000
C000
C000
C000
FFFC
7FFC
ENDCHAR
STARTCHAR f
ENCODING 102
SWIDTH 407 0
DWIDTH 9 0
BBX 8 18 1 0
BITMAP
7F
FF
C0
C0
C0
FF
FF
C0
C0
C0
C0
C0
C0
C0
C0
C0
C0
C0
ENDCHAR
STARTCHAR g
ENCODING 103
SWIDTH 683 0
DWIDTH 16 0
BBX 14 18 1 -5
BITMAP
7FF8
FFFC
C00C
C00C
C00C
C00C
C00C
C00C
C00C
C00C
C00C
FFFC
7FFC
000C
000C
000C
1FFC
1FF8
ENDCHAR
STARTCHAR h
ENCODING 104
SWIDTH 668 0
DWIDTH 16 0
BBX 14 18 1 0
BITMAP
C000
C000
C000
C000
C000
FFF8
FFFC
C00C
C00C
C00C
C00C
C00C
C00C
C00C
C00C
C00C
C00C
C00C
ENDCHAR
STARTCHAR i
ENCODING 105
SWIDTH 208 0
DWIDTH 5 0
BBX 2 18 1 0
BITMAP
C0
C0
00
00
00
C0
C0
C0
C0
C0
C0
C0
C0
C0
C0
C0
C0
C0
ENDCHAR
STARTCHAR j
ENCODING 106
SWIDTH 239 0
DWIDTH 5 0
BBX 9 24 -5 -6
BITMAP
0180
0180
0000
0000
0000
0180
0180
0180
0180
0180
0180
0180
0180
0180
0180
0180
0180
0180
0180
0180
0180
0180
FF80
FF00
ENDCHAR
STARTCHAR k
ENCODING 107
SWIDTH 646 0
DWIDTH 15 0
BBX 13 18 1 0
BITMAP
C000
C000
C000
C000
C018
C030
C070
C0E0
C1C0
C380
FF00
FF00
C300
C180
C0C0
C060
C030
C038
ENDCHAR
STARTCHAR l
ENCODING 108
SWIDTH 302 0
DWIDTH 7 0
BBX 5 18 1 0
BITMAP
C0
C0
C0
C0
C0
C0
C0
C0
C0
C0
C0
C0
C0
C0
C0
C0
F8
78
ENDCHAR
STARTCHAR m
ENCODING 109
SWIDTH 978 0
DWIDTH 23 0
BBX 21 13 1 0
BITMAP
FFFFF0
FFFFF8
C06018
C06018
C06018
C06018
C06018
C06018
C06018
C06018
C06018
C06018
C06018
ENDCHAR
STARTCHAR n
ENCODING 110
SWIDTH 696 0
DWIDTH 16 0
BBX 14 13 1 0
BITMAP
FFF8
FFFC
C00C
C00C
C00C
C00C
C00C
C00C
C00C
C00C
C00C
C00C
C00C
ENDCHAR
STARTCHAR o
ENCODING 111
SWIDTH 692 0
DWIDTH 16 0
BBX 14 13 1 0
BITMAP
7FF8
FFFC
C00C
C00C
C00C
C00C
C00C
C00C
C00C
C00C
C00C
FFFC
7FF8
ENDCHAR
STARTCHAR p
ENCODING 112
SWIDTH 664 0
DWIDTH 16 0
BBX 14 18 1 -5
BITMAP
FFF8
FFFC
C00C
C00C
C00C
C00C
C00C
C00C
C00C
C00C
C00C
FFFC
FFF8
C000
C000
C000
C000
C000
ENDCHAR
STARTCHAR q
ENCODING 113
SWIDTH 664 0
DWIDTH 15 0
BBX 14 18 0 -5
BITMAP
7FFC
FFFC
C00C
C00C
C00C
C00C
C00C
C00C
C00C
C00C
C00C
FFFC
7FFC
000C
000C
000C
000C
000C
ENDCHAR
STARTCHAR r
ENCODING 114
SWIDTH 512 0
DWIDTH 12 0
BBX 10 13 1 0
BITMAP
7FC0
FFC0
C000
C000
C000
C000
C000
C000
C000
C000
C000
C000
C000
ENDCHAR
STARTCHAR s
ENCODING 115
SWIDTH 686 0
DWIDTH 16 0
BBX 14 13 1 0
BITMAP
7FF8
FFFC
C00C
C000
C000
FFF8
7FFC
000C
000C
000C
C00C
FFFC
7FF8
ENDCHAR
STARTCHAR t
ENCODING 116
SWIDTH 410 0
DWIDTH 9 0
BBX 8 18 1 0
BITMAP
C0
C0
C0
C0
C0
FF
FF
C0
C0
C0
C0
C0
C0
C0
C0
C0
FF
7F
ENDCHAR
STARTCHAR u
ENCODING 117
SWIDTH 695 0
DWIDTH 16 0
BBX 14 13 1 0
BITMAP
C00C
C00C
C00C
C00C
C00C
C00C
C00C
C00C
C00C
C00C
C00C
FFFC
7FF8
ENDCHAR
STARTCHAR v
ENCODING 118
SWIDTH 790 0
DWIDTH 18 0
BBX 17 13 0 0
BITMAP
E00180
700380
300300
380600
180600
0C0C00
0C0C00
061800
063800
033000
03E000
01E000
00C000
ENDCHAR
STARTCHAR w
ENCODING 119
SWIDTH 1071 0
DWIDTH 25 0
BBX 23 13 1 0
BITMAP
C03806
C0380C
606C0C
606C0C
30CE18
30C618
39C738
198330
1B83B0
0F01E0
0F01E0
0E00E0
0600C0
ENDCHAR
STARTCHAR x
ENCODING 120
SWIDTH 692 0
DWIDTH 16 0
BBX 14 13 1 0
BITMAP
E01C
7030
3860
1CE0
0DC0
0780
0300
0780
0CC0
18E0
3870
7030
E01C
ENDCHAR
STARTCHAR y
ENCODING 121
SWIDTH 685 0
DWIDTH 16 0
BBX 14 18 1 -5
BITMAP
C00C
C00C
C00C
C00C
C00C
C00C
C00C
C00C
C00C
C00C
C00C
FFFC
7FFC
000C
000C
000C
1FFC
1FF8
ENDCHAR
STARTCHAR z
ENCODING 122
SWIDTH 698 0
DWIDTH 16 0
BBX 14 13 1 0
BITMAP
FFFC
FFFC
001C
0030
00E0
01C0
0300
0E00
1C00
3000
E000
FFFC
FFFC
ENDCHAR
STARTCHAR braceleft
ENCODING 123
SWIDTH 289 0
DWIDTH 7 0
BBX 4 17 1 0
BITMAP
30
70
60
60
60
60
60
C0
80
C0
60
60
60
60
60
70
30
ENDCHAR
STARTCHAR bar
ENCODING 124
SWIDTH 214 0
DWIDTH 5 0
BBX 2 22 1 -3
BITMAP
C0
C0
C0
C0
C0
C0
C0
C0
C0
C0
C0
C0
C0
C0
C0
C0
C0
C0
C0
C0
C0
C0
ENDCHAR
STARTCHAR braceright
ENCODING 125
SWIDTH 289 0
DWIDTH 7 0
BBX 4 17 1 0
BITMAP
C0
E0
60
60
60
60
60
30
10
30
60
60
60
60
60
E0
C0
ENDCHAR
STARTCHAR asciitilde
ENCODING 126
SWIDTH 404 0
DWIDTH 9 0
BBX 7 3 1 5
BITMAP
E0
18
0E
ENDCHAR
STARTCHAR space.dup1
ENCODING 160
SWIDTH 272 0
DWIDTH 6 0
BBX 1 1 0 0
BITMAP
00
ENDCHAR
STARTCHAR exclamdown
ENCODING 161
SWIDTH 210 0
DWIDTH 5 0
BBX 2 17 1 0
BITMAP
C0
C0
00
00
00
C0
C0
C0
C0
C0
C0
C0
C0
C0
C0
C0
C0
ENDCHAR
STARTCHAR cent
ENCODING 162
SWIDTH 636 0
DWIDTH 15 0
BBX 14 20 1 -3
BITMAP
0300
0300
0300
7FFC
FFFC
C300
C300
C300
C300
C300
C300
C300
C300
C300
C300
FFFC
7FFC
0300
0300
0300
ENDCHAR
STARTCHAR sterling
ENCODING 163
SWIDTH 734 0
DWIDTH 17 0
BBX 15 17 1 0
BITMAP
1FFC
3FFC
3006
3000
3000
3000
3000
3000
FFF0
FFF0
3000
3000
3000
3000
3000
FFFE
FFFE
ENDCHAR
STARTCHAR dieresis
ENCODING 168
SWIDTH 385 0
DWIDTH 9 0
BBX 6 2 1 20
BITMAP
CC
CC
ENDCHAR
STARTCHAR degree
ENCODING 176
SWIDTH 439 0
DWIDTH 9 0
BBX 7 8 1 9
BITMAP
7C
82
82
82
82
82
82
7C
ENDCHAR
STARTCHAR acute
ENCODING 180
SWIDTH 213 0
DWIDTH 5 0
BBX 2 3 1 20
BITMAP
C0
C0
C0
ENDCHAR
STARTCHAR paragraph
ENCODING 182
SWIDTH 833 0
DWIDTH 19 0
BBX 17 17 1 0
BITMAP
7FFF80
FFFF80
C03180
C03180
C03180
C03180
C03180
C03180
C03180
FFFF80
7FFF80
003180
003180
003180
003180
003180
003180
ENDCHAR
STARTCHAR cedilla
ENCODING 184
SWIDTH 213 0
DWIDTH 5 0
BBX 2 3 1 -4
BITMAP
C0
C0
C0
ENDCHAR
STARTCHAR questiondown
ENCODING 191
SWIDTH 675 0
DWIDTH 15 0
BBX 15 17 0 0
BITMAP
0030
0030
0000
0000
0000
0030
0030
7FF0
FFE0
C000
C000
C000
C000
C000
C000
FFFE
7FFE
ENDCHAR
STARTCHAR Agrave
ENCODING 192
SWIDTH 836 0
DWIDTH 19 0
BBX 17 23 1 0
BITMAP
018000
018000
008000
004000
000000
000000
7FFF00
FFFF80
C00180
C00180
C00180
C00180
C00180
C00180
C00180
FFFF80
FFFF80
C00180
C00180
C00180
C00180
C00180
C00180
ENDCHAR
STARTCHAR Aacute
ENCODING 193
SWIDTH 836 0
DWIDTH 19 0
BBX 17 23 1 0
BITMAP
00C000
018000
018000
000000
000000
000000
7FFF00
FFFF80
C00180
C00180
C00180
C00180
C00180
C00180
C00180
FFFF80
FFFF80
C00180
C00180
C00180
C00180
C00180
C00180
ENDCHAR
STARTCHAR Acircumflex
ENCODING 194
SWIDTH 836 0
DWIDTH 19 0
BBX 17 23 1 0
BITMAP
018000
014000
024000
000000
000000
000000
7FFF00
FFFF80
C00180
C00180
C00180
C00180
C00180
C00180
C00180
FFFF80
FFFF80
C00180
C00180
C00180
C00180
C00180
C00180
ENDCHAR
STARTCHAR Atilde
ENCODING 195
SWIDTH 836 0
DWIDTH 19 0
BBX 17 23 1 0
BITMAP
070000
00D000
007000
000000
000000
000000
7FFF00
FFFF80
C00180
C00180
C00180
C00180
C00180
C00180
C00180
FFFF80
FFFF80
C00180
C00180
C00180
C00180
C00180
C00180
ENDCHAR
STARTCHAR Adieresis
ENCODING 196
SWIDTH 836 0
DWIDTH 19 0
BBX 17 22 1 0
BITMAP
066000
066000
000000
000000
000000
7FFF00
FFFF80
C00180
C00180
C00180
C00180
C00180
C00180
C00180
FFFF80
FFFF80
C00180
C00180
C00180
C00180
C00180
C00180
ENDCHAR
STARTCHAR Aring
ENCODING 197
SWIDTH 836 0
DWIDTH 19 0
BBX 17 23 1 0
BITMAP
01E000
012000
012000
01E000
000000
000000
7FFF00
FFFF80
C00180
C00180
C00180
C00180
C00180
C00180
C00180
FFFF80
FFFF80
C00180
C00180
C00180
C00180
C00180
C00180
ENDCHAR
STARTCHAR AE
ENCODING 198
SWIDTH 1375 0
DWIDTH 32 0
BBX 30 17 1 0
BITMAP
7FFFFFFC
FFFFFFFC
C0018000
C0018000
C0018000
C0018000
C0018000
C0018000
C001FFF0
FFFFFFF0
FFFF8000
C0018000
C0018000
C0018000
C0018000
C001FFFC
C001FFFC
ENDCHAR
STARTCHAR Ccedilla
ENCODING 199
SWIDTH 822 0
DWIDTH 19 0
BBX 17 20 1 -3
BITMAP
7FFF80
FFFF80
C00000
C00000
C00000
C00000
C00000
C00000
C00000
C00000
C00000
C00000
C00000
C00000
C00000
FFFF80
7FFF80
018000
018000
018000
ENDCHAR
STARTCHAR Egrave
ENCODING 200
SWIDTH 766 0
DWIDTH 18 0
BBX 15 23 1 0
BITMAP
0300
0100
0180
0000
0000
0000
FFFE
FFFE
C000
C000
C000
C000
C000
C000
FFF8
FFF8
C000
C000
C000
C000
C000
FFFE
FFFE
ENDCHAR
STARTCHAR Eacute
ENCODING 201
SWIDTH 766 0
DWIDTH 18 0
BBX 15 23 1 0
BITMAP
0180
0100
0300
0000
0000
0000
FFFE
FFFE
C000
C000
C000
C000
C000
C000
FFF8
FFF8
C000
C000
C000
C000
C000
FFFE
FFFE
ENDCHAR
STARTCHAR Ecircumflex
ENCODING 202
SWIDTH 766 0
DWIDTH 18 0
BBX 15 23 1 0
BITMAP
0300
0280
0480
0040
0000
0000
FFFE
FFFE
C000
C000
C000
C000
C000
C000
FFF8
FFF8
C000
C000
C000
C000
C000
FFFE
FFFE
ENDCHAR
STARTCHAR Edieresis
ENCODING 203
SWIDTH 766 0
DWIDTH 18 0
BBX 15 22 1 0
BITMAP
0CC0
0CC0
0000
0000
0000
FFFE
FFFE
C000
C000
C000
C000
C000
C000
FFF8
FFF8
C000
C000
C000
C000
C000
FFFE
FFFE
ENDCHAR
STARTCHAR Igrave
ENCODING 204
SWIDTH 220 0
DWIDTH 5 0
BBX 2 23 1 0
BITMAP
C0
C0
40
00
00
00
C0
C0
C0
C0
C0
C0
C0
C0
C0
C0
C0
C0
C0
C0
C0
C0
C0
ENDCHAR
STARTCHAR Iacute
ENCODING 205
SWIDTH 220 0
DWIDTH 5 0
BBX 2 23 1 0
BITMAP
C0
C0
C0
00
00
00
C0
C0
C0
C0
C0
C0
C0
C0
C0
C0
C0
C0
C0
C0
C0
C0
C0
ENDCHAR
STARTCHAR Icircumflex
ENCODING 206
SWIDTH 220 0
DWIDTH 5 0
BBX 4 23 0 0
BITMAP
60
70
90
00
00
00
60
60
60
60
60
60
60
60
60
60
60
60
60
60
60
60
60
ENDCHAR
STARTCHAR Idieresis
ENCODING 207
SWIDTH 220 0
DWIDTH 5 0
BBX 6 22 -1 0
BITMAP
CC
CC
00
00
00
30
30
30
30
30
30
30
30
30
30
30
30
30
30
30
30
30
ENDCHAR
STARTCHAR Ntilde
ENCODING 209
SWIDTH 832 0
DWIDTH 19 0
BBX 17 23 1 0
BITMAP
070000
00D000
007000
000000
000000
000000
E00180
F00180
F80180
DC0180
CC0180
C60180
C30180
C38180
C1C180
C0E180
C06180
C03180
C01980
C01D80
C00F80
C00780
C00380
ENDCHAR
STARTCHAR Ograve
ENCODING 210
SWIDTH 828 0
DWIDTH 19 0
BBX 17 23 1 0
BITMAP
018000
018000
018000
000000
000000
000000
7FFF00
FFFF80
C00180
C00180
C00180
C00180
C00180
C00180
C00180
C00180
C00180
C00180
C00180
C00180
C00180
FFFF80
7FFF00
ENDCHAR
STARTCHAR Oacute
ENCODING 211
SWIDTH 828 0
DWIDTH 19 0
BBX 17 23 1 0
BITMAP
018000
018000
018000
000000
000000
000000
7FFF00
FFFF80
C00180
C00180
C00180
C00180
C00180
C00180
C00180
C00180
C00180
C00180
C00180
C00180
C00180
FFFF80
7FFF00
ENDCHAR
STARTCHAR Ocircumflex
ENCODING 212
SWIDTH 828 0
DWIDTH 19 0
BBX 17 23 1 0
BITMAP
018000
01C000
024000
000000
000000
000000
7FFF00
FFFF80
C00180
C00180
C00180
C00180
C00180
C00180
C00180
C00180
C00180
C00180
C00180
C00180
C00180
FFFF80
7FFF00
ENDCHAR
STARTCHAR Otilde
ENCODING 213
SWIDTH 828 0
DWIDTH 19 0
BBX 17 23 1 0
BITMAP
0F0000
00D000
007000
000000
000000
000000
7FFF00
FFFF80
C00180
C00180
C00180
C00180
C00180
C00180
C00180
C00180
C00180
C00180
C00180
C00180
C00180
FFFF80
7FFF00
ENDCHAR
STARTCHAR Odieresis
ENCODING 214
SWIDTH 828 0
DWIDTH 19 0
BBX 17 22 1 0
BITMAP
066000
066000
000000
000000
000000
7FFF00
FFFF80
C00180
C00180
C00180
C00180
C00180
C00180
C00180
C00180
C00180
C00180
C00180
C00180
C00180
FFFF80
7FFF00
ENDCHAR
STARTCHAR multiply
ENCODING 215
SWIDTH 546 0
DWIDTH 13 0
BBX 10 10 1 2
BITMAP
E1C0
7180
3300
1E00
0E00
0E00
1E00
3300
7180
E1C0
ENDCHAR
STARTCHAR Ugrave
ENCODING 217
SWIDTH 828 0
DWIDTH 19 0
BBX 17 23 1 0
BITMAP
018000
018000
018000
000000
000000
000000
C00180
C00180
C00180
C00180
C00180
C00180
C00180
C00180
C00180
C00180
C00180
C00180
C00180
C00180
C00180
FFFF80
7FFF00
ENDCHAR
STARTCHAR Uacute
ENCODING 218
SWIDTH 828 0
DWIDTH 19 0
BBX 17 23 1 0
BITMAP
018000
018000
018000
000000
000000
000000
C00180
C00180
C00180
C00180
C00180
C00180
C00180
C00180
C00180
C00180
C00180
C00180
C00180
C00180
C00180
FFFF80
7FFF00
ENDCHAR
STARTCHAR Ucircumflex
ENCODING 219
SWIDTH 828 0
DWIDTH 19 0
BBX 17 23 1 0
BITMAP
018000
01C000
024000
000000
000000
000000
C00180
C00180
C00180
C00180
C00180
C00180
C00180
C00180
C00180
C00180
C00180
C00180
C00180
C00180
C00180
FFFF80
7FFF00
ENDCHAR
STARTCHAR Udieresis
ENCODING 220
SWIDTH 828 0
DWIDTH 19 0
BBX 17 22 1 0
BITMAP
066000
066000
000000
000000
000000
C00180
C00180
C00180
C00180
C00180
C00180
C00180
C00180
C00180
C00180
C00180
C00180
C00180
C00180
C00180
FFFF80
7FFF00
ENDCHAR
STARTCHAR Yacute
ENCODING 221
SWIDTH 806 0
DWIDTH 19 0
BBX 18 23 0 0
BITMAP
00C000
00C000
00C000
000000
000000
000000
E001C0
700380
380700
180600
0C0C00
0E1C00
073800
03F000
01F000
01E000
00C000
00C000
00C000
00C000
00C000
00C000
00C000
ENDCHAR
STARTCHAR germandbls
ENCODING 223
SWIDTH 833 0
DWIDTH 19 0
BBX 17 17 1 0
BITMAP
7FFF00
FFFF80
C00180
C00180
C00180
C00180
C00180
C00180
C7FF00
C7FF80
C00180
C00180
C00180
C00180
C00180
C7FF80
C7FF00
ENDCHAR
STARTCHAR agrave
ENCODING 224
SWIDTH 725 0
DWIDTH 17 0
BBX 14 21 1 0
BITMAP
0300
0300
0300
0000
0000
0000
0000
0000
FFF8
FFFC
000C
000C
000C
FFFC
FFFC
C00C
C00C
C00C
C00C
FFFC
7FFC
ENDCHAR
STARTCHAR aacute
ENCODING 225
SWIDTH 725 0
DWIDTH 17 0
BBX 14 21 1 0
BITMAP
0300
0300
0300
0000
0000
0000
0000
0000
FFF8
FFFC
000C
000C
000C
FFFC
FFFC
C00C
C00C
C00C
C00C
FFFC
7FFC
ENDCHAR
STARTCHAR acircumflex
ENCODING 226
SWIDTH 725 0
DWIDTH 17 0
BBX 14 21 1 0
BITMAP
0300
0500
0480
0000
0000
0000
0000
0000
FFF8
FFFC
000C
000C
000C
FFFC
FFFC
C00C
C00C
C00C
C00C
FFFC
7FFC
ENDCHAR
STARTCHAR atilde
ENCODING 227
SWIDTH 725 0
DWIDTH 17 0
BBX 14 21 1 0
BITMAP
1C00
0320
00E0
0000
0000
0000
0000
0000
FFF8
FFFC
000C
000C
000C
FFFC
FFFC
C00C
C00C
C00C
C00C
FFFC
7FFC
ENDCHAR
STARTCHAR adieresis
ENCODING 228
SWIDTH 725 0
DWIDTH 17 0
BBX 14 20 1 0
BITMAP
0CC0
0CC0
0000
0000
0000
0000
0000
FFF8
FFFC
000C
000C
000C
FFFC
FFFC
C00C
C00C
C00C
C00C
FFFC
7FFC
ENDCHAR
STARTCHAR aring
ENCODING 229
SWIDTH 725 0
DWIDTH 17 0
BBX 14 21 1 0
BITMAP
0380
0240
0240
0380
0000
0000
0000
0000
FFF8
FFFC
000C
000C
000C
FFFC
FFFC
C00C
C00C
C00C
C00C
FFFC
7FFC
ENDCHAR
STARTCHAR ae
ENCODING 230
SWIDTH 1178 0
DWIDTH 28 0
BBX 26 13 1 0
BITMAP
FFFFFF80
FFFFFFC0
000C00C0
000C00C0
000C00C0
FFFFFFC0
FFFFFFC0
C00C0000
C00C0000
C00C0000
C00C0000
FFFFFFC0
7FFFFFC0
ENDCHAR
STARTCHAR ccedilla
ENCODING 231
SWIDTH 693 0
DWIDTH 16 0
BBX 14 16 1 -3
BITMAP
7FFC
FFFC
C000
C000
C000
C000
C000
C000
C000
C000
C000
FFFC
7FFC
0300
0200
0600
ENDCHAR
STARTCHAR egrave
ENCODING 232
SWIDTH 638 0
DWIDTH 15 0
BBX 14 21 1 0
BITMAP
0600
0600
0600
0000
0000
0000
0000
0000
7FF8
FFFC
C00C
C00C
C00C
FFFC
FFFC
C000
C000
C000
C000
FFFC
7FFC
ENDCHAR
STARTCHAR eacute
ENCODING 233
SWIDTH 638 0
DWIDTH 15 0
BBX 14 21 1 0
BITMAP
0600
0600
0600
0000
0000
0000
0000
0000
7FF8
FFFC
C00C
C00C
C00C
FFFC
FFFC
C000
C000
C000
C000
FFFC
7FFC
ENDCHAR
STARTCHAR ecircumflex
ENCODING 234
SWIDTH 638 0
DWIDTH 15 0
BBX 14 21 1 0
BITMAP
0600
0A00
0900
0000
0000
0000
0000
0000
7FF8
FFFC
C00C
C00C
C00C
FFFC
FFFC
C000
C000
C000
C000
FFFC
7FFC
ENDCHAR
STARTCHAR edieresis
ENCODING 235
SWIDTH 638 0
DWIDTH 15 0
BBX 14 20 1 0
BITMAP
1980
1980
0000
0000
0000
0000
0000
7FF8
FFFC
C00C
C00C
C00C
FFFC
FFFC
C000
C000
C000
C000
FFFC
7FFC
ENDCHAR
STARTCHAR igrave
ENCODING 236
SWIDTH 214 0
DWIDTH 5 0
BBX 3 21 0 0
BITMAP
C0
60
60
00
00
00
00
00
60
60
60
60
60
60
60
60
60
60
60
60
60
ENDCHAR
STARTCHAR iacute
ENCODING 237
SWIDTH 214 0
DWIDTH 5 0
BBX 3 21 1 0
BITMAP
60
40
C0
00
00
00
00
00
C0
C0
C0
C0
C0
C0
C0
C0
C0
C0
C0
C0
C0
ENDCHAR
STARTCHAR icircumflex
ENCODING 238
SWIDTH 214 0
DWIDTH 5 0
BBX 4 21 0 0
BITMAP
60
E0
90
00
00
00
00
00
60
60
60
60
60
60
60
60
60
60
60
60
60
ENDCHAR
STARTCHAR idieresis
ENCODING 239
SWIDTH 214 0
DWIDTH 5 0
BBX 6 20 -1 0
BITMAP
CC
CC
00
00
00
00
00
30
30
30
30
30
30
30
30
30
30
30
30
30
ENDCHAR
STARTCHAR ntilde
ENCODING 241
SWIDTH 708 0
DWIDTH 16 0
BBX 14 20 1 0
BITMAP
1C00
0320
00E0
0000
0000
0000
0000
FFF8
FFFC
C00C
C00C
C00C
C00C
C00C
C00C
C00C
C00C
C00C
C00C
C00C
ENDCHAR
STARTCHAR ograve
ENCODING 242
SWIDTH 692 0
DWIDTH 16 0
BBX 14 21 1 0
BITMAP
0600
0300
0300
0000
0000
0000
0000
0000
7FF8
FFFC
C00C
C00C
C00C
C00C
C00C
C00C
C00C
C00C
C00C
FFFC
7FF8
ENDCHAR
STARTCHAR oacute
ENCODING 243
SWIDTH 692 0
DWIDTH 16 0
BBX 14 21 1 0
BITMAP
0300
0200
0600
0000
0000
0000
0000
0000
7FF8
FFFC
C00C
C00C
C00C
C00C
C00C
C00C
C00C
C00C
C00C
FFFC
7FF8
ENDCHAR
STARTCHAR ocircumflex
ENCODING 244
SWIDTH 692 0
DWIDTH 16 0
BBX 14 21 1 0
BITMAP
0200
0500
0880
0000
0000
0000
0000
0000
7FF8
FFFC
C00C
C00C
C00C
C00C
C00C
C00C
C00C
C00C
C00C
FFFC
7FF8
ENDCHAR
STARTCHAR otilde
ENCODING 245
SWIDTH 692 0
DWIDTH 16 0
BBX 14 20 1 0
BITMAP
1C00
0320
00E0
0000
0000
0000
0000
7FF8
FFFC
C00C
C00C
C00C
C00C
C00C
C00C
C00C
C00C
C00C
FFFC
7FF8
ENDCHAR
STARTCHAR odieresis
ENCODING 246
SWIDTH 692 0
DWIDTH 16 0
BBX 14 20 1 0
BITMAP
0CC0
0CC0
0000
0000
0000
0000
0000
7FF8
FFFC
C00C
C00C
C00C
C00C
C00C
C00C
C00C
C00C
C00C
FFFC
7FF8
ENDCHAR
STARTCHAR divide
ENCODING 247
SWIDTH 508 0
DWIDTH 12 0
BBX 11 13 0 0
BITMAP
0600
0600
0000
0000
0000
FFE0
FFE0
0000
0000
0000
0000
0600
0600
ENDCHAR
STARTCHAR ugrave
ENCODING 249
SWIDTH 695 0
DWIDTH 16 0
BBX 14 21 1 0
BITMAP
0600
0300
0300
0000
0000
0000
0000
0000
C00C
C00C
C00C
C00C
C00C
C00C
C00C
C00C
C00C
C00C
C00C
FFFC
7FF8
ENDCHAR
STARTCHAR uacute
ENCODING 250
SWIDTH 695 0
DWIDTH 16 0
BBX 14 21 1 0
BITMAP
0300
0300
0600
0000
0000
0000
0000
0000
C00C
C00C
C00C
C00C
C00C
C00C
C00C
C00C
C00C
C00C
C00C
FFFC
7FF8
ENDCHAR
STARTCHAR ucircumflex
ENCODING 251
SWIDTH 695 0
DWIDTH 16 0
BBX 14 21 1 0
BITMAP
0200
0500
0880
0000
0000
0000
0000
0000
C00C
C00C
C00C
C00C
C00C
C00C
C00C
C00C
C00C
C00C
C00C
FFFC
7FF8
ENDCHAR
STARTCHAR udieresis
ENCODING 252
SWIDTH 695 0
DWIDTH 16 0
BBX 14 20 1 0
BITMAP
0CC0
0CC0
0000
0000
0000
0000
0000
C00C
C00C
C00C
C00C
C00C
C00C
C00C
C00C
C00C
C00C
C00C
FFFC
7FF8
ENDCHAR
STARTCHAR yacute
ENCODING 253
SWIDTH 688 0
DWIDTH 16 0
BBX 14 26 1 -5
BITMAP
0300
0200
0600
0000
0000
0000
0000
0000
C00C
C00C
C00C
C00C
C00C
C00C
C00C
C00C
C00C
C00C
C00C
FFFC
7FFC
000C
000C
000C
1FFC
1FF8
ENDCHAR
STARTCHAR ydieresis
ENCODING 255
SWIDTH 688 0
DWIDTH 16 0
BBX 14 25 1 -5
BITMAP
1980
1980
0000
0000
0000
0000
0000
C00C
C00C
C00C
C00C
C00C
C00C
C00C
C00C
C00C
C00C
C00C
FFFC
7FFC
000C
000C
000C
1FFC
1FF8
ENDCHAR
STARTCHAR dotlessi
ENCODING 305
SWIDTH 214 0
DWIDTH 5 0
BBX 2 13 1 0
BITMAP
C0
C0
C0
C0
C0
C0
C0
C0
C0
C0
C0
C0
C0
ENDCHAR
STARTCHAR OE
ENCODING 338
SWIDTH 1374 0
DWIDTH 32 0
BBX 30 17 1 0
BITMAP
7FFFFFFC
FFFFFFFC
C0018000
C0018000
C0018000
C0018000
C0018000
C0018000
C001FFF0
C001FFF0
C0018000
C0018000
C0018000
C0018000
C0018000
FFFFFFFC
7FFFFFFC
ENDCHAR
STARTCHAR oe
ENCODING 339
SWIDTH 1177 0
DWIDTH 28 0
BBX 26 13 1 0
BITMAP
7FFFFF80
FFFFFFC0
C00C00C0
C00C00C0
C00C00C0
C00FFFC0
C00FFFC0
C00C0000
C00C0000
C00C0000
C00C0000
FFFFFFC0
7FFFFFC0
ENDCHAR
STARTCHAR Scaron
ENCODING 352
SWIDTH 822 0
DWIDTH 19 0
BBX 17 23 1 0
BITMAP
024000
038000
018000
000000
000000
000000
7FFF00
FFFF80
C00180
C00000
C00000
C00000
C00000
C00000
FFFF00
7FFF80
000180
000180
000180
000180
C00180
FFFF80
7FFF00
ENDCHAR
STARTCHAR scaron
ENCODING 353
SWIDTH 687 0
DWIDTH 16 0
BBX 14 21 1 0
BITMAP
0980
0500
0600
0000
0000
0000
0000
0000
7FF8
FFFC
C00C
C000
C000
FFF8
7FFC
000C
000C
000C
C00C
FFFC
7FF8
ENDCHAR
STARTCHAR Ydieresis
ENCODING 376
SWIDTH 806 0
DWIDTH 19 0
BBX 18 22 0 0
BITMAP
033000
033000
000000
000000
000000
E001C0
700380
380700
180600
0C0C00
0E1C00
073800
03F000
01F000
01E000
00C000
00C000
00C000
00C000
00C000
00C000
00C000
ENDCHAR
STARTCHAR Zcaron
ENCODING 381
SWIDTH 821 0
DWIDTH 19 0
BBX 17 23 1 0
BITMAP
024000
038000
018000
000000
000000
000000
FFFF80
FFFF80
000380
000700
000E00
001800
007000
00E000
01C000
038000
070000
0C0000
380000
700000
E00000
FFFF80
FFFF80
ENDCHAR
STARTCHAR zcaron
ENCODING 382
SWIDTH 698 0
DWIDTH 16 0
BBX 14 21 1 0
BITMAP
0C80
0500
0300
0000
0000
0000
0000
0000
FFFC
FFFC
001C
0030
00E0
01C0
0300
0E00
1C00
3000
E000
FFFC
FFFC
ENDCHAR
STARTCHAR circumflex
ENCODING 710
SWIDTH 300 0
DWIDTH 7 0
BBX 4 3 1 20
BITMAP
60
E0
90
ENDCHAR
STARTCHAR caron
ENCODING 711
SWIDTH 297 0
DWIDTH 7 0
BBX 4 3 1 20
BITMAP
90
E0
60
ENDCHAR
STARTCHAR breve
ENCODING 728
SWIDTH 287 0
DWIDTH 7 0
BBX 4 2 1 20
BITMAP
90
F0
ENDCHAR
STARTCHAR dotaccent
ENCODING 729
SWIDTH 233 0
DWIDTH 5 0
BBX 3 3 1 20
BITMAP
E0
E0
E0
ENDCHAR
STARTCHAR ring
ENCODING 730
SWIDTH 233 0
DWIDTH 6 0
BBX 4 4 1 19
BITMAP
F0
90
90
F0
ENDCHAR
STARTCHAR tilde
ENCODING 732
SWIDTH 403 0
DWIDTH 9 0
BBX 7 3 1 20
BITMAP
E0
1A
0E
ENDCHAR
STARTCHAR endash
ENCODING 8211
SWIDTH 708 0
DWIDTH 16 0
BBX 14 2 1 6
BITMAP
FFFC
FFFC
ENDCHAR
STARTCHAR emdash
ENCODING 8212
SWIDTH 822 0
DWIDTH 19 0
BBX 17 2 1 6
BITMAP
FFFF80
FFFF80
ENDCHAR
STARTCHAR quoteleft
ENCODING 8216
SWIDTH 168 0
DWIDTH 4 0
BBX 2 4 1 12
BITMAP
40
C0
C0
C0
ENDCHAR
STARTCHAR quoteright
ENCODING 8217
SWIDTH 166 0
DWIDTH 4 0
BBX 2 5 1 12
BITMAP
C0
C0
C0
C0
80
ENDCHAR
STARTCHAR quotedblleft
ENCODING 8220
SWIDTH 363 0
DWIDTH 8 0
BBX 6 4 1 12
BITMAP
44
CC
CC
CC
ENDCHAR
STARTCHAR quotedblright
ENCODING 8221
SWIDTH 363 0
DWIDTH 8 0
BBX 6 5 1 12
BITMAP
CC
CC
CC
CC
88
ENDCHAR
STARTCHAR bullet
ENCODING 8226
SWIDTH 371 0
DWIDTH 9 0
BBX 2 2 3 7
BITMAP
C0
C0
ENDCHAR
STARTCHAR ellipsis
ENCODING 8230
SWIDTH 574 0
DWIDTH 13 0
BBX 11 2 1 0
BITMAP
C660
C660
ENDCHAR
STARTCHAR Euro
ENCODING 8364
SWIDTH 799 0
DWIDTH 18 0
BBX 16 17 1 0
BITMAP
1FFF
3FFF
3000
3000
3000
FFFC
FFFC
3000
3000
3000
FFFC
FFFC
3000
3000
3000
3FFF
1FFF
ENDCHAR
STARTCHAR minus
ENCODING 8722
SWIDTH 517 0
DWIDTH 12 0
BBX 9 2 1 6
BITMAP
FF80
FF80
ENDCHAR
STARTCHAR uniE000
ENCODING 57344
SWIDTH 0 0
DWIDTH 0 0
BBX 1 1 0 0
BITMAP
00
ENDCHAR
STARTCHAR seven.alt
ENCODING 57346
SWIDTH 771 0
DWIDTH 18 0
BBX 17 17 1 0
BITMAP
FFFF80
FFFF00
000E00
001C00
001800
003000
006000
00E000
01C000
038000
030000
060000
0C0000
1C0000
380000
700000
E00000
ENDCHAR
STARTCHAR nine.alt
ENCODING 57347
SWIDTH 784 0
DWIDTH 18 0
BBX 17 17 0 0
BITMAP
7FFF00
FFFF80
C00180
C00180
C00180
C00180
C00180
C00180
FFFF80
7FFF80
000180
000180
000180
000180
000180
000180
000180
ENDCHAR
STARTCHAR two.alt
ENCODING 57349
SWIDTH 815 0
DWIDTH 19 0
BBX 17 17 1 0
BITMAP
7FFF00
FFFF80
C00180
C00180
000180
000780
001E00
007800
01E000
078000
1E0000
780000
E00000
C00000
C00000
FFFF80
7FFF80
ENDCHAR
STARTCHAR question.alt
ENCODING 57350
SWIDTH 667 0
DWIDTH 16 0
BBX 14 17 1 0
BITMAP
7FF8
FFFC
C00C
C00C
C00C
000C
000C
000C
000C
07FC
0FF8
0C00
0C00
0C00
0000
0C00
0C00
ENDCHAR
STARTCHAR four.alt
ENCODING 57351
SWIDTH 723 0
DWIDTH 17 0
BBX 17 17 0 0
BITMAP
006000
00E000
01C000
038000
070000
060000
0C0000
180C00
380C00
700C00
600C00
FFFF80
FFFF80
000C00
000C00
000C00
000C00
ENDCHAR
STARTCHAR W.alt2
ENCODING 57352
SWIDTH 1168 0
DWIDTH 27 0
BBX 26 17 0 0
BITMAP
E07000C0
701800C0
380C00C0
1C0E00C0
0C0700C0
060300C0
030180C0
0381C0C0
01C1E0C0
00E1F0C0
0061B0C0
003198C0
00198CC0
001D86C0
000F87C0
000783C0
000381C0
ENDCHAR
STARTCHAR W.alt
ENCODING 57353
SWIDTH 1171 0
DWIDTH 27 0
BBX 26 17 1 0
BITMAP
C00301C0
C0060300
C00C0700
C01C0E00
C0380C00
C0301800
C0603000
C0E07000
C1E0E000
C3E1C000
C7618000
C6630000
CC660000
D86E0000
F87C0000
F0780000
E0700000
ENDCHAR
STARTCHAR V.alt
ENCODING 57354
SWIDTH 774 0
DWIDTH 18 0
BBX 17 17 1 0
BITMAP
C00380
C00600
C00E00
C01C00
C01800
C03000
C06000
C0E000
C1C000
C38000
C30000
C60000
CC0000
DC0000
F80000
F00000
E00000
ENDCHAR
STARTCHAR A.alt
ENCODING 57355
SWIDTH 774 0
DWIDTH 18 0
BBX 17 17 0 0
BITMAP
000380
000780
000F80
001D80
001980
003180
006180
00C180
01C180
038180
03FF80
07FF80
0C0180
180180
380180
300180
E00180
ENDCHAR
STARTCHAR A.alt2
ENCODING 57356
SWIDTH 774 0
DWIDTH 18 0
BBX 17 17 1 0
BITMAP
E00000
F00000
F80000
DC0000
CC0000
C60000
C30000
C18000
C1C000
C0E000
FFE000
FFF000
C01800
C00C00
C00E00
C00600
C00380
ENDCHAR
STARTCHAR .notdef
ENCODING -1
SWIDTH 0 0
DWIDTH 0 0
BBX 1 1 0 0
BITMAP
00
ENDCHAR
STARTCHAR .null
ENCODING -1
SWIDTH 0 0
DWIDTH 0 0
BBX 1 1 0 0
BITMAP
00
ENDCHAR
STARTCHAR nonmarkingreturn
ENCODING -1
SWIDTH 401 0
DWIDTH 9 0
BBX 1 1 0 0
BITMAP
00
ENDCHAR
STARTCHAR A.alt3
ENCODING -1
SWIDTH 827 0
DWIDTH 19 0
BBX 20 17 -1 0
BITMAP
007000
00F000
00F800
01D800
019C00
038C00
030E00
070600
060700
0E0300
0C0380
1FFF80
1FFFC0
3800C0
300060
600060
E00030
ENDCHAR
STARTCHAR C.alt
ENCODING -1
SWIDTH 822 0
DWIDTH 19 0
BBX 17 17 1 0
BITMAP
7FFF00
FFFF80
C00180
C00180
C00000
C00000
C00000
C00000
C00000
C00000
C00000
C00000
C00000
C00180
C00180
FFFF80
7FFF00
ENDCHAR
STARTCHAR I.alt
ENCODING -1
SWIDTH 818 0
DWIDTH 19 0
BBX 16 17 1 0
BITMAP
FFFF
FFFF
0180
0180
0180
0180
0180
0180
0180
0180
0180
0180
0180
0180
0180
FFFF
FFFF
ENDCHAR
STARTCHAR J.alt
ENCODING -1
SWIDTH 645 0
DWIDTH 15 0
BBX 14 17 0 0
BITMAP
000C
000C
000C
000C
000C
000C
000C
000C
000C
000C
000C
000C
000C
000C
000C
FFFC
FFF8
ENDCHAR
STARTCHAR K.alt
ENCODING -1
SWIDTH 829 0
DWIDTH 19 0
BBX 17 17 1 0
BITMAP
C00180
C00180
C00180
C00180
C00180
C00180
C00180
C00180
FFFF00
FFFF00
C00180
C00180
C00180
C00180
C00180
C00180
C00180
ENDCHAR
STARTCHAR M.alt
ENCODING -1
SWIDTH 1155 0
DWIDTH 27 0
BBX 25 17 1 0
BITMAP
FFFFFF00
FFFFFF80
C0180180
C0180180
C0180180
C0180180
C0180180
C0180180
C0180180
C0180180
C0180180
C0180180
C0180180
C0180180
C0180180
C0180180
C0180180
ENDCHAR
STARTCHAR N.alt
ENCODING -1
SWIDTH 827 0
DWIDTH 19 0
BBX 17 17 1 0
BITMAP
FFFF00
FFFF80
C00180
C00180
C00180
C00180
C00180
C00180
C00180
C00180
C00180
C00180
C00180
C00180
C00180
C00180
C00180
ENDCHAR
STARTCHAR O.alt
ENCODING -1
SWIDTH 824 0
DWIDTH 20 0
BBX 18 17 1 0
BITMAP
7FFF80
FFFFC0
C000C0
C000C0
C000C0
C000C0
C000C0
C000C0
C0C0C0
C0C0C0
C000C0
C000C0
C000C0
C000C0
C000C0
FFFFC0
7FFF80
ENDCHAR
STARTCHAR Q.alt
ENCODING -1
SWIDTH 868 0
DWIDTH 21 0
BBX 18 19 1 -2
BITMAP
7FFF80
FFFFC0
C000C0
C000C0
C000C0
C000C0
C000C0
C000C0
C000C0
C000C0
C000C0
C000C0
C000C0
C000C0
C000C0
FFFFC0
7FFF80
00C000
00C000
ENDCHAR
STARTCHAR R.alt
ENCODING -1
SWIDTH 826 0
DWIDTH 19 0
BBX 17 17 1 0
BITMAP
FFFF00
FFFF80
C00180
C00180
C00180
C00180
C00180
C00180
C00180
FFFF00
FFFF00
C00180
C00180
C00180
C00180
C00180
C00180
ENDCHAR
STARTCHAR S.alt
ENCODING -1
SWIDTH 812 0
DWIDTH 19 0
BBX 17 17 1 0
BITMAP
7FFF80
FFFF80
C00000
C00000
C00000
C00000
C00000
C00000
FFFF00
7FFF80
000180
000180
000180
000180
000180
FFFF80
FFFF00
ENDCHAR
STARTCHAR V.alt2
ENCODING -1
SWIDTH 774 0
DWIDTH 18 0
BBX 17 17 0 0
BITMAP
E00180
300180
380180
1C0180
0E0180
060180
030180
018180
01C180
00E180
006180
003180
001980
001D80
000F80
000780
000380
ENDCHAR
STARTCHAR V.alt3
ENCODING -1
SWIDTH 827 0
DWIDTH 19 0
BBX 17 17 1 0
BITMAP
C00180
C00180
C00180
C00180
C00180
C00180
C00180
C00180
C00180
C00180
C00180
C00180
C00180
C00180
C00180
FFFF80
7FFF80
ENDCHAR
STARTCHAR W.alt3
ENCODING -1
SWIDTH 1028 0
DWIDTH 24 0
BBX 22 17 1 0
BITMAP
C0000C
C0000C
C0000C
C0000C
C0200C
C0300C
C0780C
C0FC0C
C1CE0C
C1860C
C3030C
C6018C
CC01CC
DC00EC
F8007C
F0003C
E0001C
ENDCHAR
STARTCHAR W.alt4
ENCODING -1
SWIDTH 1155 0
DWIDTH 27 0
BBX 25 17 1 0
BITMAP
C00C0180
C00C0180
C00C0180
C00C0180
C00C0180
C00C0180
C00C0180
C00C0180
C00C0180
C00C0180
C00C0180
C00C0180
C00C0180
C00C0180
C00C0180
FFFFFF80
7FFFFF80
ENDCHAR
STARTCHAR X.alt
ENCODING -1
SWIDTH 829 0
DWIDTH 19 0
BBX 17 17 1 0
BITMAP
C00180
C00180
C00180
C00180
C00180
C00180
C00180
C00180
7FFF00
7FFF00
C00180
C00180
C00180
C00180
C00180
C00180
C00180
ENDCHAR
STARTCHAR Y.alt
ENCODING -1
SWIDTH 824 0
DWIDTH 19 0
BBX 17 17 1 0
BITMAP
C00180
C00180
C00180
C00180
C00180
C00180
C00180
C00180
FFFF80
7FFF80
000180
000180
000180
000180
000180
FFFF80
FFFF00
ENDCHAR
STARTCHAR Z.alt
ENCODING -1
SWIDTH 818 0
DWIDTH 19 0
BBX 17 17 1 0
BITMAP
FFFF00
FFFF80
000180
000180
000180
000180
000180
000180
7FFF80
FFFF00
C00000
C00000
C00000
C00000
C00000
FFFF80
7FFF80
ENDCHAR
STARTCHAR a.alt
ENCODING -1
SWIDTH 693 0
DWIDTH 16 0
BBX 14 13 1 0
BITMAP
7FF8
FFFC
C00C
C00C
C00C
C00C
C00C
C00C
C00C
C00C
C00C
FFFC
7FFC
ENDCHAR
STARTCHAR a.sc
ENCODING -1
SWIDTH 725 0
DWIDTH 17 0
BBX 15 13 1 0
BITMAP
7FFC
FFFE
C006
C006
C006
C006
C006
FFFE
FFFE
C006
C006
C006
C006
ENDCHAR
STARTCHAR b.sc
ENCODING -1
SWIDTH 700 0
DWIDTH 16 0
BBX 14 13 1 0
BITMAP
FFF0
FFF8
C018
C018
C018
FFF8
FFF8
C00C
C00C
C00C
C00C
FFFC
FFF8
ENDCHAR
STARTCHAR c.sc
ENCODING -1
SWIDTH 693 0
DWIDTH 16 0
BBX 14 13 1 0
BITMAP
7FFC
FFFC
C000
C000
C000
C000
C000
C000
C000
C000
C000
FFFC
7FFC
ENDCHAR
STARTCHAR d.sc
ENCODING -1
SWIDTH 705 0
DWIDTH 16 0
BBX 14 13 1 0
BITMAP
FFF8
FFFC
C00C
C00C
C00C
C00C
C00C
C00C
C00C
C00C
C00C
FFFC
FFF8
ENDCHAR
STARTCHAR e.sc
ENCODING -1
SWIDTH 638 0
DWIDTH 15 0
BBX 12 13 1 0
BITMAP
FFF0
FFF0
C000
C000
C000
FFC0
FFC0
C000
C000
C000
C000
FFF0
FFF0
ENDCHAR
STARTCHAR f.sc
ENCODING -1
SWIDTH 591 0
DWIDTH 14 0
BBX 12 13 1 0
BITMAP
FFF0
FFF0
C000
C000
C000
FFC0
FFC0
C000
C000
C000
C000
C000
C000
ENDCHAR
STARTCHAR g.sc
ENCODING -1
SWIDTH 690 0
DWIDTH 16 0
BBX 14 13 1 0
BITMAP
7FF8
FFFC
C00C
C000
C000
C000
C0FC
C0FC
C00C
C00C
C00C
FFFC
7FF8
ENDCHAR
STARTCHAR h.sc
ENCODING -1
SWIDTH 715 0
DWIDTH 16 0
BBX 14 13 1 0
BITMAP
C00C
C00C
C00C
C00C
C00C
FFFC
FFFC
C00C
C00C
C00C
C00C
C00C
C00C
ENDCHAR
STARTCHAR i.sc
ENCODING -1
SWIDTH 214 0
DWIDTH 5 0
BBX 2 13 1 0
BITMAP
C0
C0
C0
C0
C0
C0
C0
C0
C0
C0
C0
C0
C0
ENDCHAR
STARTCHAR j.sc
ENCODING -1
SWIDTH 657 0
DWIDTH 15 0
BBX 14 13 0 0
BITMAP
000C
000C
000C
000C
000C
000C
000C
000C
000C
C00C
C00C
FFFC
7FF8
ENDCHAR
STARTCHAR k.alt
ENCODING -1
SWIDTH 669 0
DWIDTH 16 0
BBX 14 18 1 0
BITMAP
C000
C000
C000
C000
C00C
C00C
C00C
C00C
C00C
C00C
FFFC
FFFC
C00C
C00C
C00C
C00C
C00C
C00C
ENDCHAR
STARTCHAR k.sc
ENCODING -1
SWIDTH 682 0
DWIDTH 16 0
BBX 13 13 1 0
BITMAP
C038
C070
C0E0
C1C0
C380
FF00
FE00
C300
C180
C0C0
C060
C030
C038
ENDCHAR
STARTCHAR l.sc
ENCODING -1
SWIDTH 659 0
DWIDTH 15 0
BBX 14 13 1 0
BITMAP
C000
C000
C000
C000
C000
C000
C000
C000
C000
C000
C000
FFFC
FFFC
ENDCHAR
STARTCHAR m.sc
ENCODING -1
SWIDTH 824 0
DWIDTH 19 0
BBX 17 13 1 0
BITMAP
E00380
F00780
D00580
D80D80
CC1980
C63180
C62180
C36180
C1C180
C08180
C08180
C00180
C00180
ENDCHAR
STARTCHAR n.sc
ENCODING -1
SWIDTH 708 0
DWIDTH 16 0
BBX 14 13 1 0
BITMAP
E00C
F00C
F80C
DC0C
CC0C
C60C
C30C
C18C
C0CC
C0EC
C07C
C03C
C01C
ENDCHAR
STARTCHAR o.sc
ENCODING -1
SWIDTH 692 0
DWIDTH 16 0
BBX 14 13 1 0
BITMAP
7FF8
FFFC
C00C
C00C
C00C
C00C
C00C
C00C
C00C
C00C
C00C
FFFC
7FF8
ENDCHAR
STARTCHAR p.sc
ENCODING -1
SWIDTH 660 0
DWIDTH 16 0
BBX 14 13 1 0
BITMAP
FFF8
FFFC
C00C
C00C
C00C
C00C
FFFC
FFF8
C000
C000
C000
C000
C000
ENDCHAR
STARTCHAR q.sc
ENCODING -1
SWIDTH 770 0
DWIDTH 18 0
BBX 16 13 1 0
BITMAP
7FF8
FFFC
C00C
C00C
C00C
C00C
C00C
C00C
C00C
C00C
C00C
FFFF
7FFF
ENDCHAR
STARTCHAR r.sc
ENCODING -1
SWIDTH 700 0
DWIDTH 16 0
BBX 14 13 1 0
BITMAP
FFF8
FFFC
C00C
C00C
C00C
C00C
FFFC
FFF8
C180
C0C0
C060
C030
C01C
ENDCHAR
STARTCHAR s.sc
ENCODING -1
SWIDTH 687 0
DWIDTH 16 0
BBX 14 13 1 0
BITMAP
7FF8
FFFC
C00C
C000
C000
FFF8
7FFC
000C
000C
000C
C00C
FFFC
7FF8
ENDCHAR
STARTCHAR t.sc
ENCODING -1
SWIDTH 644 0
DWIDTH 15 0
BBX 14 13 0 0
BITMAP
FFFC
FFFC
0300
0300
0300
0300
0300
0300
0300
0300
0300
0300
0300
ENDCHAR
STARTCHAR u.sc
ENCODING -1
SWIDTH 695 0
DWIDTH 16 0
BBX 14 13 1 0
BITMAP
C00C
C00C
C00C
C00C
C00C
C00C
C00C
C00C
C00C
C00C
C00C
FFFC
7FF8
ENDCHAR
STARTCHAR v.alt
ENCODING -1
SWIDTH 697 0
DWIDTH 16 0
BBX 14 13 1 0
BITMAP
C00C
C00C
C00C
C00C
C00C
C00C
C00C
C00C
C00C
C00C
C00C
FFFC
7FFC
ENDCHAR
STARTCHAR v.sc
ENCODING -1
SWIDTH 801 0
DWIDTH 18 0
BBX 18 13 0 0
BITMAP
E001C0
700180
300300
380700
180600
0C0C00
0C0C00
061800
071800
033000
01F000
01E000
00C000
ENDCHAR
STARTCHAR w.alt
ENCODING -1
SWIDTH 978 0
DWIDTH 23 0
BBX 21 13 1 0
BITMAP
C06018
C06018
C06018
C06018
C06018
C06018
C06018
C06018
C06018
C06018
C06018
FFFFF8
7FFFF8
ENDCHAR
STARTCHAR w.sc
ENCODING -1
SWIDTH 1078 0
DWIDTH 25 0
BBX 23 13 1 0
BITMAP
C03806
C03806
607C0C
606C0C
30EE18
30C618
39C718
198330
1B83B0
0F01E0
0F01E0
0600E0
0600C0
ENDCHAR
STARTCHAR x.alt
ENCODING -1
SWIDTH 698 0
DWIDTH 16 0
BBX 14 13 1 0
BITMAP
C00C
C00C
C00C
C00C
C00C
FFFC
7FF8
C00C
C00C
C00C
C00C
C00C
C00C
ENDCHAR
STARTCHAR x.sc
ENCODING -1
SWIDTH 692 0
DWIDTH 16 0
BBX 14 13 1 0
BITMAP
E01C
7030
3860
1CE0
0DC0
0780
0300
0780
0CC0
18E0
3870
7030
E01C
ENDCHAR
STARTCHAR y.sc
ENCODING -1
SWIDTH 688 0
DWIDTH 16 0
BBX 14 13 1 0
BITMAP
C00C
6018
3030
3870
1CE0
0CC0
0780
0780
0300
0300
0300
0300
0300
ENDCHAR
STARTCHAR z.alt
ENCODING -1
SWIDTH 692 0
DWIDTH 16 0
BBX 14 13 1 0
BITMAP
FFF8
FFFC
000C
000C
000C
7FFC
FFF8
C000
C000
C000
C000
FFFC
7FFC
ENDCHAR
STARTCHAR z.sc
ENCODING -1
SWIDTH 698 0
DWIDTH 16 0
BBX 14 13 1 0
BITMAP
FFFC
FFFC
001C
0030
00E0
01C0
0300
0E00
1C00
3000
E000
FFFC
FFFC
ENDCHAR
ENDFONT
